<svg width="284" height="160" viewBox="0 0 284 160" fill="none" xmlns="http://www.w3.org/2000/svg">
<path d="M163.818 0C178.369 0 181.288 7.71931 193.315 7.71931C206.04 7.71931 217.204 0 217.204 0L131.807 89.0721L82.7534 44.2278C77.262 39.2131 74.2778 32.135 74.2531 25.1474C74.2285 19.4915 76.3001 12.6025 82.6877 7.11097C89.1985 1.49618 96.3012 0 103.404 0C117.47 0 122.476 10.4979 133.993 10.4979C145.083 10.4979 149.44 0 163.818 0Z" fill="#ff5000"/>
<path d="M76.9255 113.315C81.6113 113.315 85.1791 114.811 87.6454 117.82C90.1116 120.821 91.1145 124.972 90.646 130.266L90.6131 130.62C90.572 131.121 90.128 131.524 89.6266 131.524H67.9895C68.1375 136.95 71.2121 140.394 77.7476 140.394C82.269 140.394 85.9766 138.635 89.643 136.202L89.2566 140.633C89.2402 140.822 89.1662 141.003 89.0347 141.151C86.2972 144.151 80.37 146.404 75.1827 146.404C69.9954 146.404 66.1892 144.891 63.2708 141.866C60.3524 138.841 59.1111 134.821 59.555 129.798C59.9825 124.956 61.7993 121.002 65.0054 117.927C68.2197 114.861 72.1903 113.323 76.9173 113.323L76.9255 113.315ZM83.1075 126.444C83.0828 124.126 82.5403 122.309 81.4716 121.002C80.4029 119.695 78.8327 119.037 76.7693 119.037C74.7059 119.037 72.8973 119.662 71.508 120.911C70.1105 122.161 69.1404 124.002 68.5896 126.436H83.1157L83.1075 126.444Z" fill="#ff5000"/>
<path d="M130.286 113.315C134.38 113.315 137.43 114.187 139.435 115.921C141.441 117.664 142.313 120.089 142.041 123.205L140.677 138.791C140.57 140 141.006 140.6 141.984 140.6C142.395 140.6 142.979 140.427 143.751 140.074C144.524 139.72 145.174 139.318 145.716 138.865L145.338 143.189C145.313 143.51 145.116 143.814 144.82 143.97C141.918 145.59 139.312 146.396 137.002 146.396C135.498 146.396 134.371 146.149 133.607 145.648C132.842 145.146 132.357 144.258 132.152 142.984C128.748 145.261 125.427 146.396 122.205 146.396C119.911 146.396 118.004 145.623 116.491 144.077C114.979 142.532 114.313 140.682 114.502 138.52C114.74 135.766 115.751 133.596 117.527 132.009C119.303 130.414 122.287 129.033 126.488 127.85L133.451 125.868L133.582 124.405C133.854 121.289 132.103 119.736 128.329 119.736C126.397 119.736 124.441 120.18 122.451 121.067C120.462 121.955 118.612 123.262 116.894 124.989L117.404 119.185C117.42 118.971 117.519 118.766 117.683 118.609C120.848 115.642 125.641 113.323 130.294 113.323L130.286 113.315ZM123.076 137.254C122.977 138.413 123.265 139.342 123.939 140.049C124.613 140.756 125.501 141.11 126.595 141.11C128.436 141.11 130.351 140.271 132.341 138.586L133.073 130.201C130.664 130.998 128.757 131.746 127.367 132.453C125.978 133.16 124.934 133.875 124.243 134.599C123.553 135.33 123.167 136.21 123.076 137.262V137.254Z" fill="#ff5000"/>
<path d="M109.915 100.992C104.637 100.992 101.702 98.9371 101.702 98.9371L97.6164 145.639C97.5753 146.141 97.9452 146.544 98.4467 146.544H105.023C105.525 146.544 105.969 146.141 106.01 145.639L109.915 100.992Z" fill="#ff5000"/>
<path d="M42.1263 113.315C52.0817 113.315 53.0106 121.725 52.6982 125.383L50.9966 144.867C50.9554 145.368 50.5115 145.771 50.0101 145.771H43.4334C42.932 145.771 42.562 145.368 42.6031 144.867L43.9267 129.716C44.1158 127.513 44.5186 121.569 38.0571 121.569C32.8451 121.569 31.4969 126.682 31.2338 129.716L29.9103 144.867C29.8692 145.368 29.4253 145.771 28.9238 145.771H21.9115C21.41 145.771 21.0401 145.368 21.0812 144.867L22.4047 129.716C22.5938 127.537 23.4652 121.569 17.0037 121.569C11.3807 121.569 9.95847 126.937 9.71185 129.716L8.3883 144.867C8.3472 145.368 7.90328 145.771 7.40181 145.771H0.833416C0.331949 145.771 -0.0379852 145.368 0.00311865 144.867L2.70775 113.924C2.70775 113.924 7.07298 116.636 10.4517 116.636C14.6361 116.636 16.4529 113.307 21.2045 113.307C27.7236 113.307 27.3372 116.752 31.3571 116.752C35.3771 116.752 36.4705 113.307 42.1099 113.307L42.1263 113.315Z" fill="#ff5000"/>
<path d="M187.799 144.439C187.026 153.301 182.431 159.919 171.201 159.919C164.871 159.919 161.196 157.338 159.881 156.195C159.552 155.915 159.544 155.406 159.848 155.044L163.835 150.35C165.463 152.101 168.135 153.893 171.916 153.893C177.087 153.893 179.389 150.843 179.841 145.705L179.948 144.439H179.71C178.435 145.5 175.92 146.568 172.434 146.568C165.644 146.568 159.996 142.902 161.007 131.327C161.862 121.577 167.699 114.252 178.509 114.252C183.705 114.252 186.549 117.023 190.931 113.397L187.807 144.439H187.799ZM177.753 120.106C172.5 120.106 168.932 123.706 168.307 130.858C167.625 138.652 170.527 140.608 174.72 140.608C176.906 140.608 178.978 139.844 180.408 138.364L181.946 120.821C180.688 120.352 179.405 120.114 177.753 120.114V120.106Z" fill="#ff5000"/>
<path d="M203.928 115.091C203.615 114.154 202.612 113.71 201.544 113.981C200.738 114.187 199.916 114.302 199.077 114.302C197.672 114.302 196.389 113.981 195.296 113.422L206.435 142.137L197.721 159.187C197.548 159.532 197.762 159.911 198.14 159.911H204.7C205.177 159.911 205.638 159.623 205.86 159.179L229.165 113.406C227.973 113.973 226.642 114.285 225.228 114.285C224.397 114.285 223.584 114.17 222.819 113.965C221.8 113.685 220.723 114.137 220.246 115.074L210.965 133.242L203.911 115.074L203.928 115.091Z" fill="#ff5000"/>
<path d="M272.579 114.088C282.535 114.088 283.464 122.498 283.151 126.156L281.45 145.639C281.408 146.141 280.965 146.544 280.463 146.544H273.886C273.385 146.544 273.015 146.141 273.056 145.639L274.38 130.488C274.569 128.285 274.972 122.342 268.51 122.342C263.298 122.342 261.95 127.455 261.687 130.488L260.363 145.639C260.322 146.141 259.878 146.544 259.377 146.544H252.365C251.863 146.544 251.493 146.141 251.534 145.639L252.858 130.488C253.047 128.31 253.918 122.342 247.457 122.342C241.834 122.342 240.412 127.71 240.165 130.488L238.841 145.639C238.8 146.141 238.356 146.544 237.855 146.544H231.278C230.777 146.544 230.407 146.141 230.448 145.639L233.153 114.696C233.153 114.696 237.518 117.409 240.897 117.409C245.081 117.409 246.898 114.08 251.649 114.08C258.168 114.08 257.782 117.524 261.802 117.524C265.822 117.524 266.915 114.08 272.555 114.08L272.579 114.088Z" fill="#ff5000"/>
</svg>
